<svg xmlns="http://www.w3.org/2000/svg" width="441.8" height="242.6" viewBox="0 0 441.8 242.6">
  <defs>
    <style>
      .cls-1 {
        fill: #ebf5fc;
      }

      .cls-2 {
        fill: #ab473e;
      }

      .cls-3 {
        fill: #fab17e;
      }

      .cls-4 {
        fill: #ee985e;
      }

      .cls-14, .cls-17, .cls-19, .cls-5 {
        fill: #2b4f97;
      }

      .cls-21, .cls-6 {
        fill: #fff;
      }

      .cls-7 {
        fill: #609ba8;
      }

      .cls-8 {
        fill: #b6c1e3;
      }

      .cls-23, .cls-9 {
        fill: #1e3e70;
      }

      .cls-10 {
        fill: #a3b0da;
      }

      .cls-11 {
        fill: none;
      }

      .cls-12, .cls-16 {
        fill: #e9edf7;
      }

      .cls-13, .cls-14 {
        opacity: 0.59;
      }

      .cls-14, .cls-16, .cls-17, .cls-19 {
        isolation: isolate;
      }

      .cls-15, .cls-16 {
        opacity: 0.52;
      }

      .cls-17, .cls-18 {
        opacity: 0.79;
      }

      .cls-19 {
        opacity: 0.8;
      }

      .cls-20 {
        opacity: 0.06;
      }

      .cls-21 {
        stroke: #2b4f97;
        stroke-width: 2px;
      }

      .cls-22, .cls-23 {
        opacity: 0.04;
      }
    </style>
  </defs>
  <title>home-mobile-2</title>
  <g id="Layer_2" data-name="Layer 2">
    <g id="Layer_1-2" data-name="Layer 1">
      <path class="cls-1" d="M37.6,242.4S-7.7,202.8,1.1,137.6C10.2,70,58.1,34.1,120.5,47.7c51,11.2,83.9,4,136.7-27.9,86.5-52.2,198,4.3,168.9,105.6-14.2,49,45.1,73.2-4.5,117.1Z"/>
      <g>
        <path class="cls-2" d="M351.2,98.4c-1.4-5.3.7-7.8,2.5-9.1s1.9-3.4,3-4a11.7,11.7,0,0,1,5.6-1,4.1,4.1,0,0,0-1.1-.5,11,11,0,0,1,3.1.7c13.6-4.7,15.7,13.6,15.4,17.8s-.2,9.3,6.8,12.6c13.5,6.4-4.4,30.5-4.4,30.5.3-3.5-17-21.6-26-27-2.2-3-3-8.2-3.1-8.6a22,22,0,0,0,1.9,7.8C350.8,114.1,350.2,105.8,351.2,98.4Z"/>
        <path class="cls-3" d="M356.6,118.7s4.4,2.1,7.7,1.3,5.1-4.5,5.1-4.5-1.7-1.9-1.7-9.1h-.6l-10,1.9s.2,2.9.2,5.6S357.2,118.4,356.6,118.7Z"/>
        <path class="cls-4" d="M357.1,108.4s.2,2.9.2,5.6c5.6-.2,8.6-4.9,9.8-7.5Z"/>
        <path class="cls-5" d="M348.9,239.9l.6-1.6c4-10.9,12.5-24.5,17-36.9l1.9-5.6.5-1.7a122.6,122.6,0,0,0,5.1-24.6l-32.1.2a588.9,588.9,0,0,1-16.3,72.8H348Z"/>
        <path class="cls-6" d="M346.4,152.8c0,14-2.3,20-2.3,20a47.1,47.1,0,0,0,30.2,1.7l11.7-3.1c-.3-.5-2.6-9.9-2.8-10.4-3.5-6.8-4.4-9.7-4.8-11.8a42,42,0,0,1-.5-11.7,94.9,94.9,0,0,1,4-18.5c-4.4-.9-8.6-2.6-13.3-4.2-1,1.3-4.3,2.5-7.1,2.5s-4.3-1.4-4.2-2.8c-3.4,1.8-6.2,3.5-6.2,3.5-2.9,4.7-8.9,9.2-9.4,16.4C341.6,136.2,346.4,152.4,346.4,152.8Z"/>
        <path class="cls-7" d="M374,154.3c1.5,1.9,4.1,12.9,10.9,14.3-3.5-7.9-6.1-11.3-6.5-13.8a51.8,51.8,0,0,1-.4-13.6l-4-6.1c-.1-.6-3.5-10.2-4.6-1.6S372.5,152.3,374,154.3Z"/>
        <path class="cls-3" d="M355.2,110.9s13.3.2,13.3-7.3,1.7-12.7-6.8-13.2-10.1,2.5-10.7,5S351.8,110.7,355.2,110.9Z"/>
        <path class="cls-2" d="M355.7,90.3s3.6,8.8,9.2,10.2,8-.1,8-.1a14.3,14.3,0,0,1-5.2-8.6C367.8,91.9,358.4,86,355.7,90.3Z"/>
        <path class="cls-2" d="M356.6,91s-2.7,2-3.4,3.9-.9,5.9-2.2,5.8-2.7-6.1.3-9.5S356.6,91,356.6,91Z"/>
        <path class="cls-3" d="M334.3,162.5,328.1,180l3.5,1.3L342,165.9Z"/>
        <path class="cls-8" d="M351.2,117s-7.4,2.7-9.5,6.9-5.4,32.3-6.7,35.1-2.2,5.2-2.2,5.2,3.7,2.9,7.4,3.1S351.2,117,351.2,117Z"/>
        <path class="cls-8" d="M357.3,114.6s-7.7,17.3-7.9,20.9-.9,57.5-.9,57.5.5,2.5-4.7,1.4-6.6-2-6.6-2,5-33.4,3.6-44.9S351.2,117,351.2,117Z"/>
        <path class="cls-9" d="M348,242.5c.6-1.6.8-2.2.9-2.6l.6-1.5c4-10.9,12.5-24.6,17-37l1.9-5.6.5-1.7-4.7-3.3s-14.3,21.2-18.7,41c-3.5,10.7-2.1,6.6-3.5,10.7"/>
        <path class="cls-5" d="M381.1,242.5c.2-1,.7-4.1,1.4-8.4,1.5-9.4,2.8-17.4,3.8-24.3s1.6-12.8,1.9-17.7a17,17,0,0,0,.1-2.2v-2.2l-27.8-2.5c.4,17,3.2,42.8,3.2,48.5v8.8Z"/>
        <path class="cls-9" d="M381.1,242.5c.6-3.1-.4,2.7,1.4-8.4,1.5-9.4,2.8-17.4,3.8-24.3s1.6-12.8,1.9-17.7L378,197.6s6.5,2.1,4,18.1-3.3,21.4-4,26.8Z"/>
        <path class="cls-8" d="M369.3,192s2,6.4,8.7,5.6,16.5-4.5,16.5-4.5-2.9-8.4-6.5-19.4c-4.4-13.4-9.8-30.6-12.3-41.4a74.4,74.4,0,0,1-1.4-7.4l-5.6-10s-8.4,17.2-8.9,21.6S369.3,192,369.3,192Z"/>
        <path class="cls-3" d="M376.1,135.9l-7.5-21a128.3,128.3,0,0,1,14.1,4.7s3,3.5,4.8,11.5c0,0,1.9,19.3-2.4,26.3,0,0-13.5,2.5-35.2-4.3v-4.6s23.7,1.1,28.6,1.7Z"/>
        <path class="cls-10" d="M369.6,145.6c.3,7,2.1,20.7,18.2,28h.1c-4.3-13.4-9.7-30.5-12.3-41.4C372.7,136.4,369.4,141.7,369.6,145.6Z"/>
        <path class="cls-8" d="M368.6,114.9s13.8.9,17.1,7.7,4.4,29.2.1,35.8c0,0-5.8,1.5-16-.2h-.4s-3.3-7.3-.4-8.8c0,0,8.7.5,7.8-2.2S368.6,114.9,368.6,114.9Z"/>
        <path class="cls-2" d="M334.2,151.3l.4,1.2,22.5-6.4a.9.9,0,0,0,.2-.8.7.7,0,0,0-.6-.4Z"/>
        <path class="cls-2" d="M332.5,152.4l1.7-1.1.4,1.2Z"/>
        <path class="cls-3" d="M328.9,179.5s-5.7,2.9-6.4,5.2-.3,6.8.6,6.7,2.3-4.9,3-5.3,1.9-1.4,1.9-.6-.8,2.2-.4,2.4,1.6-2,2.4-2.4,1.2-3.8,2-4.7S328.9,179.5,328.9,179.5Z"/>
        <path class="cls-3" d="M349.9,148.5s-5.1-2.9-7.3-2.4-7.6,4-5,4.8,4.8,0,5.8.6,1.8,1.6,6.5,1.6S349.9,148.5,349.9,148.5Z"/>
      </g>
      <g>
        <g>
          <polygon class="cls-11" points="47.1 87.1 116.7 103.5 93.8 193.4 24.2 177 47.1 87.1"/>
          <path class="cls-6" d="M86.9,187.2,32.3,174.4a3.5,3.5,0,0,1-2.7-4.5L49.1,94.3a3.8,3.8,0,0,1,4.6-2.7l54.6,12.7a3.6,3.6,0,0,1,2.8,4.5L91.6,184.4A4.1,4.1,0,0,1,86.9,187.2Z"/>
          <path class="cls-12" d="M87.8,185.1,32.6,172.2a1.7,1.7,0,0,1-1.3-2.2L50.6,95a1.9,1.9,0,0,1,2.3-1.3l55.2,12.9a1.6,1.6,0,0,1,1.3,2.1L90,183.7A1.9,1.9,0,0,1,87.8,185.1Z"/>
          <g class="cls-13">
            <g class="cls-13">
              <path class="cls-14" d="M90.1,138.8l-26.2-6.1a.8.8,0,0,1-.6-1.1c.1-.4.6-.8,1-.6l26.3,6.1a.9.9,0,0,1-.5,1.7Z"/>
            </g>
            <g class="cls-13">
              <path class="cls-14" d="M89,143.2l-26.2-6.1a.9.9,0,0,1-.7-1.1,1.1,1.1,0,0,1,1.1-.6l26.3,6.1a.9.9,0,0,1,.6,1.1A.9.9,0,0,1,89,143.2Z"/>
            </g>
            <g class="cls-13">
              <path class="cls-14" d="M82.2,146.3l-20.5-4.8a.9.9,0,0,1-.7-1.1,1,1,0,0,1,1.1-.6l20.6,4.8a.9.9,0,1,1-.5,1.7Z"/>
            </g>
          </g>
          <path class="cls-6" d="M55,139.9l-9.4-2.2a.7.7,0,0,1-.5-.8l2.4-9.3a.9.9,0,0,1,.8-.5l9.5,2.2a.7.7,0,0,1,.4.8l-2.4,9.3A.8.8,0,0,1,55,139.9Z"/>
          <g class="cls-15">
            <path class="cls-16" d="M54.4,138.5l-7.6-1.7a.5.5,0,0,1-.3-.5l2-7.5c0-.2.2-.3.4-.3l7.7,1.8c.2,0,.3.3.3.5l-2,7.4A.3.3,0,0,1,54.4,138.5Z"/>
          </g>
          <g class="cls-13">
            <g class="cls-13">
              <path class="cls-14" d="M91.2,162.5l-32.9-7.8a.9.9,0,0,1-.6-1,.9.9,0,0,1,1.1-.7l32.8,7.7a.9.9,0,0,1,.7,1.1A1,1,0,0,1,91.2,162.5Z"/>
            </g>
            <g class="cls-13">
              <path class="cls-14" d="M90.1,166.9l-32.9-7.8a.8.8,0,0,1-.6-1,.9.9,0,0,1,1-.7l32.9,7.7a.9.9,0,0,1-.4,1.8Z"/>
            </g>
            <g class="cls-13">
              <path class="cls-14" d="M82,169.6l-25.9-6.1a.9.9,0,0,1-.6-1,.9.9,0,0,1,1.1-.7l25.8,6.1a.9.9,0,0,1,.7,1.1A1.1,1.1,0,0,1,82,169.6Z"/>
            </g>
          </g>
          <path class="cls-6" d="M49.5,161.9,40,159.7a.6.6,0,0,1-.5-.8l2.4-9.3a.7.7,0,0,1,.8-.4l9.5,2.2a.6.6,0,0,1,.4.7l-2.4,9.3A.5.5,0,0,1,49.5,161.9Z"/>
          <g class="cls-15">
            <path class="cls-16" d="M48.8,160.6l-7.6-1.8c-.2,0-.3-.3-.3-.5l2-7.4c0-.3.2-.4.5-.3l7.6,1.7a.5.5,0,0,1,.3.5l-2,7.5C49.3,160.4,49.1,160.6,48.8,160.6Z"/>
          </g>
          <path class="cls-17" d="M88.3,115l-18.8-4.4a.9.9,0,0,1-.7-1,1,1,0,0,1,1.1-.7l18.8,4.4a.9.9,0,0,1,.7,1.1A.9.9,0,0,1,88.3,115Z"/>
          <g class="cls-18">
            <path class="cls-5" d="M100.1,122.5,68.4,115a.9.9,0,0,1-.7-1,.9.9,0,0,1,1.1-.7l31.7,7.5a.9.9,0,0,1,.7,1.1A.9.9,0,0,1,100.1,122.5Z"/>
          </g>
          <path class="cls-17" d="M92.7,125.4l-25.4-5.9a.9.9,0,0,1,.4-1.8l25.4,6a.9.9,0,0,1,.7,1.1A.9.9,0,0,1,92.7,125.4Z"/>
          <path class="cls-6" d="M60.6,117.8l-9.5-2.2a.6.6,0,0,1-.4-.7l2.4-9.3a.6.6,0,0,1,.8-.5l9.4,2.2a.6.6,0,0,1,.5.8l-2.4,9.3A.6.6,0,0,1,60.6,117.8Z"/>
          <path class="cls-19" d="M60.1,116.5l-7.8-1.8c-.2,0-.3-.2-.3-.4l2-7.7c.1-.2.3-.3.4-.2l7.9,1.8c.2,0,.3.2.2.4l-2,7.7C60.4,116.4,60.3,116.6,60.1,116.5Z"/>
          <path class="cls-1" d="M55.9,113.6l-.3-.3-1.2-1.8c-.1-.3-.1-.7.2-.8a.5.5,0,0,1,.8.2l.8,1.3,3.8-2.3a.6.6,0,1,1,.6,1l-4.3,2.5C56.2,113.6,56.1,113.6,55.9,113.6Z"/>
        </g>
        <g>
          <path class="cls-6" d="M53.2,242.5,37.4,165.1a5,5,0,0,1,3.8-5.8l70-16a4.7,4.7,0,0,1,5.7,3.6l19.5,95.6Z"/>
          <path class="cls-12" d="M55.4,242.5,39.6,165.1a2.3,2.3,0,0,1,1.8-2.8l70.7-16.2a2.3,2.3,0,0,1,2.8,1.8l19.3,94.6Z"/>
          <g class="cls-13">
            <g class="cls-13">
              <path class="cls-14" d="M109.6,193.3,76,200.9a1.1,1.1,0,0,1-1.4-.8,1.2,1.2,0,0,1,.9-1.4l33.7-7.6a1,1,0,0,1,1.3.8A1.2,1.2,0,0,1,109.6,193.3Z"/>
            </g>
            <g class="cls-13">
              <path class="cls-14" d="M110.8,199l-33.7,7.6a1.1,1.1,0,0,1-1.3-.8,1.2,1.2,0,0,1,.9-1.4l33.6-7.6a1.1,1.1,0,0,1,1.4.8A1.2,1.2,0,0,1,110.8,199Z"/>
            </g>
            <g class="cls-13">
              <path class="cls-14" d="M104.7,206.3l-26.4,6a1.2,1.2,0,0,1-1.3-.8,1.2,1.2,0,0,1,.9-1.4l26.4-6a1.2,1.2,0,0,1,1.3.9A1.1,1.1,0,0,1,104.7,206.3Z"/>
            </g>
          </g>
          <path class="cls-6" d="M69.8,214.2l-12.1,2.7a.8.8,0,0,1-1-.6l-2.4-12a.9.9,0,0,1,.6-1L67,200.5a.8.8,0,0,1,1,.6l2.4,12.1A.9.9,0,0,1,69.8,214.2Z"/>
          <g class="cls-15">
            <path class="cls-16" d="M68.4,213l-9.8,2.2c-.3.1-.5-.1-.6-.4l-2-9.6a.7.7,0,0,1,.4-.7l9.8-2.2c.3-.1.5.1.6.4l2,9.7A.8.8,0,0,1,68.4,213Z"/>
          </g>
          <g class="cls-13">
            <g class="cls-13">
              <path class="cls-14" d="M124.1,219.9l-42.2,9.5a1.1,1.1,0,0,1-1.3-.9,1.2,1.2,0,0,1,.8-1.3l42.2-9.5a1,1,0,0,1,1.3.8A1.1,1.1,0,0,1,124.1,219.9Z"/>
            </g>
            <g class="cls-13">
              <path class="cls-14" d="M125.3,225.6l-42.2,9.5a1.1,1.1,0,0,1-1.3-.9,1.2,1.2,0,0,1,.8-1.3l42.2-9.6a1.2,1.2,0,0,1,.5,2.3Z"/>
            </g>
            <g class="cls-13">
              <path class="cls-14" d="M117.5,233.3l-33.1,7.5a1.3,1.3,0,0,1-1.4-.9,1.1,1.1,0,0,1,.9-1.3l33.1-7.5a1.1,1.1,0,0,1,1.4.8A1.3,1.3,0,0,1,117.5,233.3Z"/>
            </g>
          </g>
          <path class="cls-6" d="M62.2,242.5l-2-9.7a.8.8,0,0,1,.6-1L73,229a.7.7,0,0,1,.9.6l2.5,12.1a.9.9,0,0,1-.4.8Z"/>
          <g class="cls-15">
            <path class="cls-16" d="M74.3,241.5l-4.6,1H63.8L62,233.6c-.1-.2.1-.5.4-.6l9.7-2.2a.4.4,0,0,1,.6.4l2,9.7A.6.6,0,0,1,74.3,241.5Z"/>
          </g>
          <path class="cls-17" d="M94.1,166.9,70,172.4a1,1,0,0,1-1.3-.8,1.3,1.3,0,0,1,.9-1.4l24.1-5.5a1.1,1.1,0,0,1,.4,2.2Z"/>
          <g class="cls-18">
            <path class="cls-5" d="M111.9,168.9l-40.7,9.2a1,1,0,0,1-1.3-.8,1.3,1.3,0,0,1,.8-1.4l40.8-9.2a1.2,1.2,0,0,1,1.3.9A1.1,1.1,0,0,1,111.9,168.9Z"/>
          </g>
          <path class="cls-17" d="M105,176.4l-32.5,7.4a1.3,1.3,0,0,1-1.4-.8,1.2,1.2,0,0,1,.9-1.4l32.6-7.4a1.1,1.1,0,0,1,.4,2.2Z"/>
          <path class="cls-6" d="M63.9,185.7l-12.2,2.8a.7.7,0,0,1-.9-.6l-2.5-12.1a.9.9,0,0,1,.7-1l12.1-2.7a.7.7,0,0,1,.9.6l2.5,12A.9.9,0,0,1,63.9,185.7Z"/>
          <path class="cls-19" d="M62.6,184.5l-10.1,2.3c-.2,0-.5-.1-.5-.4l-2-9.9c-.1-.2.1-.5.3-.6l10.1-2.3a.7.7,0,0,1,.5.4l2,9.9A.6.6,0,0,1,62.6,184.5Z"/>
          <path class="cls-1" d="M56.1,183.4a.6.6,0,0,1-.6-.1l-2.3-1.5a.6.6,0,0,1-.2-1,.8.8,0,0,1,1-.2l1.6,1,3.1-4.6a.7.7,0,0,1,1-.3.8.8,0,0,1,.2,1L56.4,183C56.4,183.3,56.3,183.4,56.1,183.4Z"/>
        </g>
      </g>
      <g class="cls-20">
        <path class="cls-21" d="M146.8,88.9l-13.3-4.2a.4.4,0,0,1-.3-.6l4.6-13.3a.7.7,0,0,1,.6-.3l13.4,4.2a.5.5,0,0,1,.2.6l-4.6,13.3A.6.6,0,0,1,146.8,88.9Z"/>
        <path class="cls-5" d="M140.5,82.6a.7.7,0,0,1-.5-.4l-1.4-2.8a.8.8,0,0,1,.4-1.1.8.8,0,0,1,1.1.3l1,2,5.6-2.8a.9.9,0,0,1,1.2.3.8.8,0,0,1-.4,1.1L141,82.4C140.9,82.7,140.7,82.7,140.5,82.6Z"/>
      </g>
      <g class="cls-22">
        <path class="cls-21" d="M377.3,57.7l-19.5-6.1a.8.8,0,0,1-.4-.9l6.8-19.3a.7.7,0,0,1,.8-.5l19.5,6.2a.7.7,0,0,1,.4.8l-6.7,19.3A.8.8,0,0,1,377.3,57.7Z"/>
        <path class="cls-5" d="M368,48.6a2,2,0,0,1-.7-.6l-2-4.1a1.3,1.3,0,0,1,.5-1.7,1.4,1.4,0,0,1,1.7.6l1.4,2.8,8.3-4.1a1.2,1.2,0,0,1,1.6.5,1.1,1.1,0,0,1-.6,1.6l-9.3,4.7A.8.8,0,0,1,368,48.6Z"/>
      </g>
      <g class="cls-22">
        <path class="cls-21" d="M334,74.1l-31.5,7a1.1,1.1,0,0,1-1.2-.8l-6-31.7a1.1,1.1,0,0,1,.8-1.3l31.5-7a1,1,0,0,1,1.2.8l6,31.7A1.1,1.1,0,0,1,334,74.1Z"/>
        <path class="cls-5" d="M314.1,69a1.7,1.7,0,0,1-1.4-.3l-6.1-4a1.8,1.8,0,0,1-.5-2.6,2,2,0,0,1,2.7-.6l4.2,2.8,8-12.2a2,2,0,0,1,2.7-.6,1.8,1.8,0,0,1,.5,2.6L315.1,68C315,68.6,314.7,68.8,314.1,69Z"/>
      </g>
      <path class="cls-23" d="M225.9,229.7l-19.4-6.2a.7.7,0,0,0-.9.5l-6.5,18.5h1.1l6.2-17.9,18.9,5.9-4.2,12h1.1l4.2-12A.7.7,0,0,0,225.9,229.7Z"/>
      <g class="cls-22">
        <path class="cls-5" d="M209.5,241.1a.9.9,0,0,1-.7-.6l-2.1-4.1a1.2,1.2,0,0,1,.6-1.6,1.1,1.1,0,0,1,1.6.6l1.4,2.8,8.3-4.1a1.3,1.3,0,0,1,1.7.5,1.2,1.2,0,0,1-.6,1.6l-9.4,4.7A.5.5,0,0,1,209.5,241.1Z"/>
      </g>
    </g>
  </g>
</svg>
