<svg xmlns="http://www.w3.org/2000/svg" xmlns:xlink="http://www.w3.org/1999/xlink" width="1481.6" height="494" viewBox="0 0 1481.6 494">
  <defs>
    <style>
      .cls-1 {
        fill: none;
      }

      .cls-2 {
        fill: #eaf5ff;
      }

      .cls-3 {
        clip-path: url(#clip-path);
      }

      .cls-15, .cls-4 {
        fill: #fff;
      }

      .cls-5, .cls-9 {
        fill: #e8edfd;
      }

      .cls-6, .cls-7 {
        opacity: 0.59;
      }

      .cls-10, .cls-12, .cls-13, .cls-7 {
        fill: #2a4e96;
      }

      .cls-10, .cls-13, .cls-7, .cls-9 {
        isolation: isolate;
      }

      .cls-8, .cls-9 {
        opacity: 0.52;
      }

      .cls-10, .cls-11 {
        opacity: 0.79;
      }

      .cls-13, .cls-17 {
        opacity: 0.8;
      }

      .cls-14 {
        opacity: 0.1;
      }

      .cls-15 {
        stroke: #2a4e96;
        stroke-width: 5px;
      }

      .cls-16 {
        fill: #e8edff;
      }

      .cls-18 {
        fill: #a9453d;
      }

      .cls-19 {
        fill: #ffb27d;
      }

      .cls-20 {
        fill: #ed975d;
      }

      .cls-21 {
        fill: #5f9aa8;
      }

      .cls-22 {
        fill: #b5c1e8;
      }

      .cls-23 {
        fill: #1e3d70;
      }

      .cls-24 {
        fill: #a2b0de;
      }
    </style>
    <clipPath id="clip-path">
      <polygon class="cls-1" points="330 169.3 515.2 204.2 467.3 442.7 282.2 407.8 330 169.3"/>
    </clipPath>
  </defs>
  <title>home-desktop-2</title>
  <g id="Layer_2" data-name="Layer 2">
    <g id="Layer_1-2" data-name="Layer 1">
      <path class="cls-2" d="M883.8,68.3C702.1,178,589,202.6,413.3,164.2,198.3,117.3,33.6,241,2.3,473.6,1.3,480.5.6,487.3,0,494H1457.8a189.6,189.6,0,0,1,7.5-62.2C1565.7,83.1,1181.7-111.7,883.8,68.3Z"/>
      <g class="cls-3">
        <g>
          <polygon class="cls-1" points="332.7 169.4 515.6 212.6 455.4 448.7 272.5 405.5 332.7 169.4"/>
          <path class="cls-4" d="M437.4,432.4,293.9,398.9a9.6,9.6,0,0,1-7.3-11.8l51.3-198.7a10.2,10.2,0,0,1,12.2-7.3l143.5,33.5a9.5,9.5,0,0,1,7.3,11.8L449.6,425.1A10.4,10.4,0,0,1,437.4,432.4Z"/>
          <path class="cls-5" d="M439.6,426.9l-145-33.8a4.5,4.5,0,0,1-3.5-5.7L342,190.3a4.7,4.7,0,0,1,5.9-3.5l145,33.7a4.7,4.7,0,0,1,3.5,5.8L445.5,423.4A5.1,5.1,0,0,1,439.6,426.9Z"/>
          <g class="cls-6">
            <g class="cls-6">
              <path class="cls-7" d="M445.8,305.4l-69-16.2a2.3,2.3,0,0,1-1.6-2.8,2.4,2.4,0,0,1,2.8-1.7l68.9,16.2a2.3,2.3,0,0,1-1.1,4.5Z"/>
            </g>
            <g class="cls-6">
              <path class="cls-7" d="M442.9,317l-69-16.3a2.2,2.2,0,0,1-1.7-2.7,2.6,2.6,0,0,1,2.8-1.8l69,16.3a2.2,2.2,0,0,1,1.7,2.7A2.5,2.5,0,0,1,442.9,317Z"/>
            </g>
            <g class="cls-6">
              <path class="cls-7" d="M425,325l-54-12.7a2.3,2.3,0,1,1,1.1-4.5l54.1,12.7a2.2,2.2,0,0,1,1.6,2.8A2.4,2.4,0,0,1,425,325Z"/>
            </g>
          </g>
          <path class="cls-4" d="M353.6,308l-24.9-5.7a1.7,1.7,0,0,1-1.3-2l6.4-24.4a1.7,1.7,0,0,1,2-1.3l24.9,5.8a1.6,1.6,0,0,1,1.2,2l-6.3,24.4A1.7,1.7,0,0,1,353.6,308Z"/>
          <g class="cls-8">
            <path class="cls-9" d="M351.9,304.6l-20-4.7a.9.9,0,0,1-.7-1.2l5-19.6a1.1,1.1,0,0,1,1.3-.8l20.1,4.6a1.1,1.1,0,0,1,.7,1.3l-5.1,19.6A1.3,1.3,0,0,1,351.9,304.6Z"/>
          </g>
          <g class="cls-6">
            <g class="cls-6">
              <path class="cls-7" d="M448.6,367.4l-86.4-20.3a2.3,2.3,0,1,1,1.1-4.5l86.4,20.3a2.4,2.4,0,0,1,1.7,2.8A2.3,2.3,0,0,1,448.6,367.4Z"/>
            </g>
            <g class="cls-6">
              <path class="cls-7" d="M445.6,379l-86.4-20.3a2.3,2.3,0,0,1-1.6-2.8,2.5,2.5,0,0,1,2.8-1.8l86.4,20.4a2.3,2.3,0,0,1,1.6,2.8A2.3,2.3,0,0,1,445.6,379Z"/>
            </g>
            <g class="cls-6">
              <path class="cls-7" d="M424.4,386.2l-68-15.9a2.4,2.4,0,0,1-1.6-2.8,2.4,2.4,0,0,1,2.8-1.7l67.9,15.9a2.3,2.3,0,0,1-1.1,4.5Z"/>
            </g>
          </g>
          <path class="cls-4" d="M338.9,366,314,360.2a1.6,1.6,0,0,1-1.2-2l6.3-24.4a1.8,1.8,0,0,1,2.1-1.3l24.9,5.8a1.7,1.7,0,0,1,1.2,2l-6.4,24.4A1.7,1.7,0,0,1,338.9,366Z"/>
          <g class="cls-8">
            <path class="cls-9" d="M337.3,362.5l-20-4.7a.9.9,0,0,1-.8-1.2l5.1-19.6a1,1,0,0,1,1.3-.8l20,4.6a1.1,1.1,0,0,1,.8,1.3l-5.1,19.6A1.1,1.1,0,0,1,337.3,362.5Z"/>
          </g>
          <path class="cls-10" d="M440.9,242.8l-49.4-11.6a2.2,2.2,0,0,1-1.7-2.7,2.4,2.4,0,0,1,2.8-1.7l49.5,11.6a2.2,2.2,0,0,1,1.7,2.7A2.5,2.5,0,0,1,440.9,242.8Z"/>
          <g class="cls-11">
            <path class="cls-12" d="M472,262.5l-83.4-19.7a2.2,2.2,0,0,1-1.7-2.7,2.5,2.5,0,0,1,2.8-1.8L473.1,258a2.4,2.4,0,0,1,1.7,2.8A2.3,2.3,0,0,1,472,262.5Z"/>
          </g>
          <path class="cls-10" d="M452.5,270.1l-66.7-15.7a2.2,2.2,0,0,1-1.7-2.7,2.5,2.5,0,0,1,2.8-1.8l66.8,15.7a2.4,2.4,0,0,1,1.6,2.8A2.4,2.4,0,0,1,452.5,270.1Z"/>
          <path class="cls-4" d="M368.2,250.1l-24.9-5.7a1.7,1.7,0,0,1-1.2-2l6.3-24.4a1.9,1.9,0,0,1,2.1-1.3l24.9,5.8a1.6,1.6,0,0,1,1.2,2l-6.3,24.4A1.8,1.8,0,0,1,368.2,250.1Z"/>
          <path class="cls-13" d="M366.9,246.7,346.3,242a1.1,1.1,0,0,1-.7-1.1l5.3-20.2a.9.9,0,0,1,1.1-.7l20.6,4.8a1,1,0,0,1,.7,1.1L368,246.1A1.1,1.1,0,0,1,366.9,246.7Z"/>
          <path class="cls-2" d="M355.9,238.9a1.2,1.2,0,0,1-.9-.6l-3-4.9a1.3,1.3,0,0,1,.5-2,1.4,1.4,0,0,1,2.1.5l2.1,3.4,9.8-5.9a1.6,1.6,0,0,1,2.1.5,1.4,1.4,0,0,1-.5,2l-11.2,6.7A.7.7,0,0,1,355.9,238.9Z"/>
        </g>
      </g>
      <g class="cls-14">
        <path class="cls-15" d="M1303.9,239.3l-74.6-23.5a2.5,2.5,0,0,1-1.6-3.2l25.9-74a2.6,2.6,0,0,1,3.3-1.7l74.6,23.5a2.6,2.6,0,0,1,1.7,3.2l-25.9,74A2.8,2.8,0,0,1,1303.9,239.3Z"/>
        <path class="cls-12" d="M1268.3,204.3a4,4,0,0,1-2.6-2.3l-7.9-15.7a4.7,4.7,0,0,1,8.4-4.2l5.5,11.1,31.8-15.9a4.5,4.5,0,1,1,4.1,8.1l-36,18A2.5,2.5,0,0,1,1268.3,204.3Z"/>
      </g>
      <path class="cls-4" d="M482.1,318.5a12.6,12.6,0,0,0-14.8-9.6L287.2,344a12.1,12.1,0,0,0-9.7,14.3L305.6,494H518.5Z"/>
      <path class="cls-16" d="M476.9,320.6a6,6,0,0,0-7.1-4.6l-182,35.4a5.9,5.9,0,0,0-4.7,7L311.2,494H512.9Z"/>
      <g class="cls-6">
        <g class="cls-6">
          <path class="cls-7" d="M463,434l-86.1,16.8a2.8,2.8,0,0,1-3.3-2.2,2.8,2.8,0,0,1,2.2-3.2l86-16.8a2.9,2.9,0,0,1,3.4,2.2A2.8,2.8,0,0,1,463,434Z"/>
        </g>
        <g class="cls-6">
          <path class="cls-7" d="M466,448.5l-86.1,16.8a3,3,0,0,1-3.3-2.2,2.8,2.8,0,0,1,2.2-3.3l86-16.7a3,3,0,0,1,3.4,2.1A2.9,2.9,0,0,1,466,448.5Z"/>
        </g>
        <g class="cls-6">
          <path class="cls-7" d="M450.4,466.6l-67.5,13.1a2.8,2.8,0,0,1-3.3-2.2,2.8,2.8,0,0,1,2.2-3.2l67.4-13.2a3.1,3.1,0,0,1,3.4,2.2A2.8,2.8,0,0,1,450.4,466.6Z"/>
        </g>
      </g>
      <path class="cls-4" d="M361.4,483.9,330.1,490a2.1,2.1,0,0,1-2.4-1.6l-6.3-30.3a2,2,0,0,1,1.6-2.4l31.2-6.1a2.2,2.2,0,0,1,2.5,1.6l6.3,30.3A2.1,2.1,0,0,1,361.4,483.9Z"/>
      <g class="cls-8">
        <path class="cls-9" d="M357.6,480.9l-25.1,4.9a1.3,1.3,0,0,1-1.5-1l-5.1-24.4a1.4,1.4,0,0,1,1.1-1.6l25-4.8a1.2,1.2,0,0,1,1.6,1l5.1,24.4A1.4,1.4,0,0,1,357.6,480.9Z"/>
      </g>
      <g class="cls-11">
        <path class="cls-12" d="M423.6,366.5l-61.7,12a3,3,0,0,1-3.4-2.1,2.9,2.9,0,0,1,2.3-3.3l61.7-12a2.8,2.8,0,0,1,3.3,2.2A2.8,2.8,0,0,1,423.6,366.5Z"/>
        <path class="cls-12" d="M469,372.7,364.9,393a2.9,2.9,0,0,1-3.4-2.2,2.9,2.9,0,0,1,2.3-3.2l104-20.3a2.9,2.9,0,0,1,3.4,2.2A2.7,2.7,0,0,1,469,372.7Z"/>
        <path class="cls-12" d="M451.3,391.2l-83.2,16.2a2.9,2.9,0,0,1-3.4-2.2A2.9,2.9,0,0,1,367,402l83.2-16.2a3,3,0,0,1,3.4,2.1A2.9,2.9,0,0,1,451.3,391.2Z"/>
      </g>
      <path class="cls-4" d="M346.3,411.6l-31.2,6.1a2.1,2.1,0,0,1-2.4-1.6l-6.3-30.3a2,2,0,0,1,1.6-2.4l31.2-6.1a2.2,2.2,0,0,1,2.5,1.6l6.3,30.4A2,2,0,0,1,346.3,411.6Z"/>
      <g class="cls-17">
        <path class="cls-12" d="M343,408.5l-25.8,5.1a1.2,1.2,0,0,1-1.4-.9l-5.2-25.1a1.2,1.2,0,0,1,.9-1.3l25.8-5a1.3,1.3,0,0,1,1.4.8l5.2,25.1C343.8,407.8,343.5,408.4,343,408.5Z"/>
      </g>
      <path class="cls-2" d="M326.3,405.4a1.7,1.7,0,0,1-1.4-.3l-6.1-3.9a1.8,1.8,0,0,1-.5-2.5,1.8,1.8,0,0,1,2.6-.5l4.3,2.7,7.8-11.5a1.9,1.9,0,0,1,2.6-.5,1.9,1.9,0,0,1,.6,2.6l-8.9,13A1.2,1.2,0,0,1,326.3,405.4Z"/>
      <g>
        <path class="cls-12" d="M1099.9,452.1l1.8-5.9c11.7-37.2,15.1-61.6,18.2-87.7l-114.3.9S998,413.1,979.7,494h104.5c3.3-7.4,6.3-14.8,8.9-22S1097.8,458.4,1099.9,452.1Z"/>
        <path class="cls-18" d="M1038.9,105.8c-5-19,2.3-27.9,8.9-32.6,3.1-7,6.7-12.1,10.4-13.9,6.6-3.5,14.6-3.8,20.2-3.6a10.8,10.8,0,0,0-4.2-1.9c3.4-.5,11.2,2.7,11.2,2.7,48.2-17,55.8,48,54.8,63.1s-.8,33,24.3,44.9c47.9,22.7-16,108.4-16,108.4,1.2-12.2-60.2-76.7-92.4-96-7.8-10.5-10.5-29.2-10.8-30.7,1.4,14.8,4.1,23,6.6,27.7C1037.2,161.6,1035.1,132,1038.9,105.8Z"/>
        <path class="cls-19" d="M1058,177.8c-.2.1,15.5,7.5,27.2,4.6s18.3-15.9,18.1-16c-4.6-.8-6-6.7-5.9-32.1l-2.1.4-35.7,6.5s.9,10.3.9,19.9S1060,177,1058,177.8Z"/>
        <path class="cls-20" d="M1059.7,141.2s.8,10.3.8,19.9c20-.5,30.5-17.1,34.8-26.4Z"/>
        <path class="cls-4" d="M1021.6,299.1c.2,49.9-8,71.3-8,71.3s49,22.8,107.2,6l41.7-10.8c-.9-2.1-9.1-35.5-10-37.3-12.3-24.2-15.7-34.4-17.1-41.8-2.8-13.9-2.8-28.3-1.5-41.8A316,316,0,0,1,1148,179c-15.8-3.3-30.7-9.1-47.2-14.8-3.8,4.3-15.4,8.9-25.5,8.6s-15.4-4.7-14.7-9.7c-12.3,6.3-22.2,12.2-22.2,12.2-10.5,16.7-31.8,33-33.4,58.7C1004.6,240.4,1021.6,297.8,1021.6,299.1Z"/>
        <path class="cls-21" d="M1120,304.7c5.1,6.5,14.6,46,38.5,50.9-12.3-28.1-21.6-40.4-23.1-49.1-2.7-16.1-2.7-32.8-1.4-48.6-8-12.8-14-21.6-14-21.6-.6-2.1-12.7-36.2-16.6-5.7S1114.4,297.5,1120,304.7Z"/>
        <path class="cls-19" d="M1053,150.3s47.3.7,47.3-26.2,6.1-45-24-46.7-36,8.7-38.4,17.8S1040.8,149.4,1053,150.3Z"/>
        <path class="cls-18" d="M1054.7,76.8s13,31.6,32.8,36.3,28.4-.2,28.4-.2-15.2-11.1-18.3-30.5C1097.6,82.5,1064.5,61.8,1054.7,76.8Z"/>
        <path class="cls-18" d="M1058,79.4s-9.6,7.1-12,14-3.4,20.9-7.9,20.5c0,0-9.7-21.6,1.2-33.6S1058,79.4,1058,79.4Z"/>
        <path class="cls-19" d="M978.7,333.8,956.4,396l12.7,4.7,37-55Z"/>
        <path class="cls-22" d="M1038.8,171.8s-26.3,9.6-33.8,24.5-19.2,114.9-23.8,125.2-8,18.4-8,18.4,13.3,10.2,26.6,11S1038.8,171.8,1038.8,171.8Z"/>
        <path class="cls-22" d="M1060.5,163.2s-27.3,61.9-28.1,74.4-3.2,204.6-3.2,204.6,1.6,8.8-16.8,5.2S989,440,989,440s17.7-118.5,12.9-159.7,36.9-108.5,36.9-108.5Z"/>
        <path class="cls-23" d="M1084.9,434.6s-18.9-11.3-34.5,59.4h26Z"/>
        <path class="cls-12" d="M1164.6,494s5-39.3,5.8-54.9c.2-2.7.3-5.5.3-8s.1-5.2.1-7.7l-98.9-8.8c.5,23.7,4.5,79.4,4.5,79.4Z"/>
        <path class="cls-23" d="M1164.6,494s5-39.3,5.8-54.8l-36.2,19.6s9.6,3.1,14.1,20.6c1,4.1,2,14.6,2,14.6Z"/>
        <path class="cls-22" d="M1103.2,438.6s7,23,31,20.1,58.4-16.2,58.4-16.2-10.3-29.8-23-69.1c-15.5-47.4-34.8-108.5-43.8-147.1a248.1,248.1,0,0,1-4.9-26.3l-20-35.6s-29.8,61.3-31.4,76.8S1103.2,438.6,1103.2,438.6Z"/>
        <path class="cls-19" d="M1127.2,239l-26.4-74.5c.1,0,33.4,9,50,16.8,0,0,10.5,12.4,17,40.9,0,0,6.8,68.4-8.4,93.4,0,0-48.2,8.8-125.3-15.4V284s84.3,4,101.6,5.9Z"/>
        <path class="cls-24" d="M1104.2,273.7c1.1,25,7.5,73.6,64.8,99.6l.4.2c-15.5-47.4-34.7-108.6-43.8-147.2C1115.2,240.8,1103.6,259.9,1104.2,273.7Z"/>
        <path class="cls-22" d="M1100.8,164.5s48.9,3.1,60.7,27.2,15.5,104,.5,127.6c0,0-20.7,5.4-57.2-.9l-1.4-.2s-11.6-26.1-1.2-31.3c0,0,30.9,1.5,27.6-7.8S1100.8,164.5,1100.8,164.5Z"/>
        <path class="cls-18" d="M978.1,294l1.5,4.2,80.3-22.9a2.5,2.5,0,0,0,.5-2.6,2.3,2.3,0,0,0-2-1.6Z"/>
        <path class="cls-18" d="M972.4,297.9l5.7-3.9,1.5,4.2Z"/>
        <path class="cls-19" d="M959.6,394.4s-20.3,10.3-23.1,18.2-.8,24.3,2.4,24.1,8.1-17.7,10.7-18.9,6.5-4.9,6.5-2.2-2.6,7.7-1.4,8.4,5.7-6.9,8.6-8.4,4.2-13.6,7.1-16.8S959.6,394.4,959.6,394.4Z"/>
        <path class="cls-19" d="M1034.1,284s-18.2-10.3-25.9-8.7-27.2,14.5-17.7,17.3,16.9-.1,20.5,1.9,6.3,5.8,23.1,5.7S1034.1,284,1034.1,284Z"/>
      </g>
    </g>
  </g>
</svg>
