<?xml version="1.0" encoding="utf-8"?>
<!-- Generator: Adobe Illustrator 23.0.5, SVG Export Plug-In . SVG Version: 6.00 Build 0)  -->
<svg version="1.1" id="Layer_1" xmlns="http://www.w3.org/2000/svg" xmlns:xlink="http://www.w3.org/1999/xlink" width="1481.6" height="511" 
	 viewBox="0 0 1481.6 511">
<style type="text/css">
	.st0{fill:#EAF5FF;}
	.st1{clip-path:url(#SVGID_2_);}
	.st2{fill:none;}
	.st3{fill:#FFFFFF;}
	.st4{fill:#E8EDFD;}
	.st5{opacity:0.59;}
	.st6{opacity:0.59;fill:#2A4E96;enable-background:new    ;}
	.st7{opacity:0.52;}
	.st8{opacity:0.52;fill:#E8EDFD;enable-background:new    ;}
	.st9{opacity:0.79;fill:#2A4E96;enable-background:new    ;}
	.st10{opacity:0.79;}
	.st11{fill:#2A4E96;}
	.st12{opacity:0.8;fill:#2A4E96;enable-background:new    ;}
	.st13{fill:#E8EDFF;}
	.st14{opacity:0.8;}
	.st15{fill:#A9453D;}
	.st16{fill:#FFB27D;}
	.st17{fill:#ED975D;}
	.st18{fill:#5F9AA8;}
	.st19{fill:#B5C1E8;}
	.st20{fill:#1E3D70;}
	.st21{fill:#A2B0DE;}
</style>
<title>home-desktop-2</title>
<g>
	<g id="Layer_1-2">
		<path class="st0" d="M883.8,85.3C702.1,195,589,219.6,413.3,181.2c-215-46.9-379.7,76.8-411,309.4c-1,6.9-1.7,13.7-2.3,20.4
			h1457.8c-1-21,1.6-42,7.5-62.2C1565.7,100.1,1181.7-94.7,883.8,85.3z"/>
		<g>
			<g>
				<defs>
					<polygon id="SVGID_1_" points="330,186.3 515.2,221.2 467.3,459.7 282.2,424.8 					"/>
				</defs>
				<clipPath id="SVGID_2_">
					<use xlink:href="#SVGID_1_"  style="overflow:visible;"/>
				</clipPath>
				<g class="st1">
					<g>
						<polygon class="st2" points="332.7,186.4 515.6,229.6 455.4,465.7 272.5,422.5 						"/>
						<path class="st3" d="M437.4,449.4l-143.5-33.5c-5.2-1.1-8.5-6.2-7.4-11.4c0-0.1,0.1-0.3,0.1-0.4l51.3-198.7
							c1.4-5.3,6.8-8.6,12.2-7.3l143.5,33.5c5.1,1,8.5,6,7.4,11.2c0,0.2-0.1,0.4-0.1,0.6l-51.3,198.7
							C448.1,447.4,442.8,450.6,437.4,449.4z"/>
						<path class="st4" d="M439.6,443.9l-145-33.8c-2.4-0.5-4.1-2.8-3.6-5.2c0-0.2,0.1-0.3,0.1-0.5L342,207.3
							c0.6-2.5,3.1-4.1,5.6-3.6c0.1,0,0.2,0,0.3,0.1l145,33.7c2.5,0.6,4.1,3.1,3.5,5.6c0,0.1,0,0.1,0,0.2l-50.9,197.1
							C444.7,442.9,442.2,444.4,439.6,443.9z"/>
						<g class="st5">
							<g class="st5">
								<path class="st6" d="M445.8,322.4l-69-16.2c-1.2-0.3-1.9-1.6-1.6-2.8c0.3-1.2,1.6-2,2.8-1.7l68.9,16.2
									c1.2,0.3,2,1.6,1.7,2.8C448.3,321.9,447,322.7,445.8,322.4L445.8,322.4L445.8,322.4z"/>
							</g>
							<g class="st5">
								<path class="st6" d="M442.9,334l-69-16.3c-1.2-0.2-2-1.4-1.7-2.6V315c0.4-1.2,1.6-2,2.8-1.8l69,16.3c1.2,0.2,2,1.4,1.7,2.6
									v0.1C445.4,333.4,444.2,334.2,442.9,334z"/>
							</g>
							<g class="st5">
								<path class="st6" d="M425,342l-54-12.7c-1.2-0.3-2-1.6-1.7-2.8c0.3-1.2,1.6-2,2.8-1.7l0,0l54.1,12.7
									c1.2,0.3,1.9,1.5,1.6,2.6c0,0.1,0,0.1,0,0.2C427.5,341.5,426.2,342.3,425,342z"/>
							</g>
						</g>
						<path class="st3" d="M353.6,325l-24.9-5.7c-0.9-0.2-1.5-1.1-1.3-2l6.4-24.4c0.2-0.9,1.1-1.5,2-1.3l24.9,5.8
							c0.9,0.2,1.4,1,1.2,1.9v0.1l-6.3,24.4C355.4,324.7,354.5,325.2,353.6,325z"/>
						<g class="st7">
							<path class="st8" d="M351.9,321.6l-20-4.7c-0.5-0.1-0.8-0.5-0.7-1c0-0.1,0-0.1,0-0.2l5-19.6c0.1-0.6,0.7-0.9,1.3-0.8
								l20.1,4.6c0.5,0.2,0.8,0.8,0.7,1.3l-5.1,19.6C353,321.3,352.5,321.6,351.9,321.6z"/>
						</g>
						<g class="st5">
							<g class="st5">
								<path class="st6" d="M448.6,384.4l-86.4-20.3c-1.2-0.3-2-1.6-1.7-2.8c0.3-1.2,1.6-2,2.8-1.7l86.4,20.3
									c1.2,0.3,2,1.6,1.7,2.8C451.1,383.9,449.9,384.7,448.6,384.4L448.6,384.4z"/>
							</g>
							<g class="st5">
								<path class="st6" d="M445.6,396l-86.4-20.3c-1.2-0.3-1.9-1.6-1.6-2.8c0.3-1.2,1.5-2,2.8-1.8l86.4,20.4
									c1.2,0.3,1.9,1.6,1.6,2.8S446.9,396.3,445.6,396L445.6,396z"/>
							</g>
							<g class="st5">
								<path class="st6" d="M424.4,403.2l-68-15.9c-1.2-0.4-1.9-1.6-1.6-2.8c0.3-1.2,1.6-2,2.8-1.7l67.9,15.9
									c1.2,0.3,2,1.6,1.7,2.8C426.9,402.7,425.6,403.5,424.4,403.2L424.4,403.2L424.4,403.2z"/>
							</g>
						</g>
						<path class="st3" d="M338.9,383l-24.9-5.8c-0.9-0.2-1.4-1-1.2-1.9v-0.1l6.3-24.4c0.2-0.9,1.2-1.5,2.1-1.3l24.9,5.8
							c0.9,0.2,1.4,1.1,1.2,2l-6.4,24.4C340.7,382.6,339.8,383.2,338.9,383z"/>
						<g class="st7">
							<path class="st8" d="M337.3,379.5l-20-4.7c-0.5,0-0.9-0.5-0.9-0.9c0-0.1,0-0.2,0.1-0.3l5.1-19.6c0.1-0.5,0.6-0.9,1.1-0.8
								c0.1,0,0.1,0,0.2,0l20,4.6c0.6,0.1,0.9,0.7,0.8,1.3l-5.1,19.6C338.5,379.3,337.9,379.6,337.3,379.5z"/>
						</g>
						<path class="st9" d="M440.9,259.8l-49.4-11.6c-1.2-0.2-2-1.4-1.7-2.6v-0.1c0.3-1.2,1.6-2,2.8-1.7l49.5,11.6
							c1.2,0.2,2,1.4,1.7,2.6v0.1C443.4,259.3,442.2,260.1,440.9,259.8z"/>
						<g class="st10">
							<path class="st11" d="M472,279.5l-83.4-19.7c-1.2-0.2-2-1.4-1.7-2.6v-0.1c0.3-1.2,1.5-2,2.8-1.8l83.4,19.7
								c1.2,0.3,2,1.6,1.7,2.8C474.5,279,473.3,279.8,472,279.5L472,279.5z"/>
						</g>
						<path class="st9" d="M452.5,287.1l-66.7-15.7c-1.2-0.2-2-1.4-1.7-2.6v-0.1c0.3-1.2,1.5-2,2.8-1.8l66.8,15.7
							c1.2,0.4,1.9,1.6,1.6,2.8C455,286.6,453.7,287.4,452.5,287.1z"/>
						<path class="st3" d="M368.2,267.1l-24.9-5.7c-0.9-0.2-1.4-1.1-1.2-2l6.3-24.4c0.3-0.9,1.2-1.4,2.1-1.3l24.9,5.8
							c0.9,0.2,1.4,1,1.2,1.9v0.1l-6.3,24.4C370,266.8,369.1,267.3,368.2,267.1z"/>
						<path class="st12" d="M366.9,263.7l-20.6-4.7c-0.4-0.2-0.7-0.6-0.7-1.1l5.3-20.2c0.1-0.5,0.6-0.8,1.1-0.7l0,0l20.6,4.8
							c0.5,0.1,0.8,0.6,0.7,1.1l-5.3,20.2C367.8,263.5,367.4,263.7,366.9,263.7z"/>
						<path class="st0" d="M355.9,255.9c-0.4,0-0.7-0.3-0.9-0.6l-3-4.9c-0.4-0.6-0.4-1.4,0.2-1.8c0.1-0.1,0.2-0.1,0.3-0.2
							c0.6-0.5,1.5-0.3,2,0.3c0.1,0.1,0.1,0.1,0.1,0.2l2.1,3.4l9.8-5.9c0.7-0.4,1.6-0.2,2.1,0.5c0.4,0.6,0.2,1.5-0.4,1.9
							c0,0-0.1,0-0.1,0.1l-11.2,6.7C356.7,256,356.3,256.1,355.9,255.9L355.9,255.9z"/>
					</g>
				</g>
			</g>
		</g>
		<path class="st3" d="M482.1,335.5c-1.5-6.7-8.1-11-14.8-9.6L287.2,361c-6.6,1.2-10.9,7.5-9.7,14.1c0,0.1,0,0.2,0,0.2L305.6,511
			h212.9L482.1,335.5z"/>
		<path class="st13" d="M476.9,337.6c-0.7-3.2-3.9-5.3-7.1-4.6l-182,35.4c-3.2,0.6-5.3,3.7-4.7,6.9v0.1L311.2,511h201.7L476.9,337.6
			z"/>
		<g class="st5">
			<g class="st5">
				<path class="st6" d="M463,451l-86.1,16.8c-1.5,0.3-3-0.7-3.3-2.2l0,0c-0.2-1.5,0.7-2.9,2.2-3.2l86-16.8c1.5-0.3,3.1,0.7,3.4,2.2
					C465.4,449.3,464.5,450.7,463,451z"/>
			</g>
			<g class="st5">
				<path class="st6" d="M466,465.5l-86.1,16.8c-1.5,0.2-2.9-0.7-3.3-2.2c-0.3-1.5,0.7-3,2.2-3.3l0,0l86-16.7c1.5-0.3,3,0.6,3.4,2.1
					C468.5,463.7,467.5,465.2,466,465.5z"/>
			</g>
			<g class="st5">
				<path class="st6" d="M450.4,483.6l-67.5,13.1c-1.5,0.3-3-0.7-3.3-2.2l0,0c-0.2-1.5,0.7-2.9,2.2-3.2l67.4-13.2
					c1.5-0.2,3,0.7,3.4,2.2C452.9,481.8,451.9,483.3,450.4,483.6L450.4,483.6z"/>
			</g>
		</g>
		<path class="st3" d="M361.4,500.9l-31.3,6.1c-1.1,0.2-2.2-0.5-2.4-1.6l-6.3-30.3c-0.2-1.1,0.4-2.1,1.5-2.4h0.1l31.2-6.1
			c1.1-0.2,2.2,0.5,2.5,1.6l6.3,30.3C363.2,499.6,362.5,500.7,361.4,500.9z"/>
		<g class="st7">
			<path class="st8" d="M357.6,497.9l-25.1,4.9c-0.7,0.1-1.3-0.3-1.5-1l-5.1-24.4c-0.1-0.7,0.4-1.4,1.1-1.6l25-4.8
				c0.6-0.2,1.3,0.1,1.5,0.7c0,0.1,0.1,0.2,0.1,0.3l5.1,24.4C358.8,497.1,358.3,497.8,357.6,497.9z"/>
		</g>
		<g class="st10">
			<path class="st11" d="M423.6,383.5l-61.7,12c-1.5,0.3-3-0.6-3.4-2.1c-0.2-1.5,0.8-3,2.3-3.3l61.7-12c1.5-0.3,3,0.7,3.3,2.2l0,0
				C426,381.8,425.1,383.2,423.6,383.5z"/>
			<path class="st11" d="M469,389.7L364.9,410c-1.5,0.3-3.1-0.7-3.4-2.2c-0.2-1.5,0.8-2.9,2.3-3.2l104-20.3c1.5-0.3,3.1,0.7,3.4,2.2
				C471.5,388,470.6,389.4,469,389.7C469.1,389.7,469,389.7,469,389.7z"/>
			<path class="st11" d="M451.3,408.2l-83.2,16.2c-1.5,0.3-3.1-0.7-3.4-2.2c-0.2-1.5,0.8-2.9,2.3-3.2l83.2-16.2
				c1.5-0.3,3,0.6,3.4,2.1C453.8,406.4,452.8,407.9,451.3,408.2z"/>
		</g>
		<path class="st3" d="M346.3,428.6l-31.2,6.1c-1.1,0.2-2.2-0.5-2.4-1.6l-6.3-30.3c-0.2-1.1,0.4-2.1,1.5-2.4h0.1l31.2-6.1
			c1.1-0.2,2.2,0.5,2.5,1.6l6.3,30.4C348.2,427.4,347.4,428.4,346.3,428.6L346.3,428.6z"/>
		<g class="st14">
			<path class="st11" d="M343,425.5l-25.8,5.1c-0.6,0.1-1.3-0.3-1.4-0.9l-5.2-25.1c-0.1-0.6,0.3-1.2,0.9-1.3l25.8-5
				c0.6-0.1,1.2,0.2,1.4,0.8l5.2,25.1C343.8,424.8,343.5,425.4,343,425.5z"/>
		</g>
		<path class="st0" d="M326.3,422.4c-0.5,0.1-1,0-1.4-0.3l-6.1-3.9c-0.8-0.6-1.1-1.7-0.5-2.5l0,0c0.5-0.8,1.6-1.1,2.5-0.6l0.1,0.1
			l4.3,2.7l7.8-11.5c0.6-0.8,1.7-1.1,2.6-0.5s1.1,1.7,0.6,2.6l-8.9,13C327.2,422,326.8,422.3,326.3,422.4z"/>
		<g>
			<path class="st11" d="M1099.9,469.1l1.8-5.9c11.7-37.2,15.1-61.6,18.2-87.7l-114.3,0.9c0,0-7.6,53.7-25.9,134.6h104.5
				c3.3-7.4,6.3-14.8,8.9-22S1097.8,475.4,1099.9,469.1z"/>
			<path class="st15" d="M1038.9,122.8c-5-19,2.3-27.9,8.9-32.6c3.1-7,6.7-12.1,10.4-13.9c6.6-3.5,14.6-3.8,20.2-3.6
				c-1.2-0.9-2.7-1.6-4.2-1.9c3.4-0.5,11.2,2.7,11.2,2.7c48.2-17,55.8,48,54.8,63.1s-0.8,33,24.3,44.9c47.9,22.7-16,108.4-16,108.4
				c1.2-12.2-60.2-76.7-92.4-96c-7.8-10.5-10.5-29.2-10.8-30.7c1.4,14.8,4.1,23,6.6,27.7C1037.2,178.6,1035.1,149,1038.9,122.8z"/>
			<path class="st16" d="M1058,194.8c-0.2,0.1,15.5,7.5,27.2,4.6s18.3-15.9,18.1-16c-4.6-0.8-6-6.7-5.9-32.1l-2.1,0.4l-35.7,6.5
				c0,0,0.9,10.3,0.9,19.9S1060,194,1058,194.8z"/>
			<path class="st17" d="M1059.7,158.2c0,0,0.8,10.3,0.8,19.9c20-0.5,30.5-17.1,34.8-26.4L1059.7,158.2z"/>
			<path class="st3" d="M1021.6,316.1c0.2,49.9-8,71.3-8,71.3s49,22.8,107.2,6l41.7-10.8c-0.9-2.1-9.1-35.5-10-37.3
				c-12.3-24.2-15.7-34.4-17.1-41.8c-2.8-13.9-2.8-28.3-1.5-41.8c2.4-22.3,7.1-44.4,14.1-65.7c-15.8-3.3-30.7-9.1-47.2-14.8
				c-3.8,4.3-15.4,8.9-25.5,8.6s-15.4-4.7-14.7-9.7c-12.3,6.3-22.2,12.2-22.2,12.2c-10.5,16.7-31.8,33-33.4,58.7
				C1004.6,257.4,1021.6,314.8,1021.6,316.1z"/>
			<path class="st18" d="M1120,321.7c5.1,6.5,14.6,46,38.5,50.9c-12.3-28.1-21.6-40.4-23.1-49.1c-2.7-16.1-2.7-32.8-1.4-48.6
				c-8-12.8-14-21.6-14-21.6c-0.6-2.1-12.7-36.2-16.6-5.7S1114.4,314.5,1120,321.7z"/>
			<path class="st16" d="M1053,167.3c0,0,47.3,0.7,47.3-26.2s6.1-45-24-46.7s-36,8.7-38.4,17.8S1040.8,166.4,1053,167.3z"/>
			<path class="st15" d="M1054.7,93.8c0,0,13,31.6,32.8,36.3c19.8,4.7,28.4-0.2,28.4-0.2s-15.2-11.1-18.3-30.5
				C1097.6,99.5,1064.5,78.8,1054.7,93.8z"/>
			<path class="st15" d="M1058,96.4c0,0-9.6,7.1-12,14s-3.4,20.9-7.9,20.5c0,0-9.7-21.6,1.2-33.6S1058,96.4,1058,96.4z"/>
			<path class="st16" d="M978.7,350.8L956.4,413l12.7,4.7l37-55L978.7,350.8z"/>
			<path class="st19" d="M1038.8,188.8c0,0-26.3,9.6-33.8,24.5s-19.2,114.9-23.8,125.2s-8,18.4-8,18.4s13.3,10.2,26.6,11
				S1038.8,188.8,1038.8,188.8z"/>
			<path class="st19" d="M1060.5,180.2c0,0-27.3,61.9-28.1,74.4s-3.2,204.6-3.2,204.6s1.6,8.8-16.8,5.2S989,457,989,457
				s17.7-118.5,12.9-159.7s36.9-108.5,36.9-108.5L1060.5,180.2z"/>
			<path class="st20" d="M1084.9,451.6c0,0-18.9-11.3-34.5,59.4h26L1084.9,451.6z"/>
			<path class="st11" d="M1164.6,511c0,0,5-39.3,5.8-54.9c0.2-2.7,0.3-5.5,0.3-8s0.1-5.2,0.1-7.7l-98.9-8.8
				c0.5,23.7,4.5,79.4,4.5,79.4H1164.6z"/>
			<path class="st20" d="M1164.6,511c0,0,5-39.3,5.8-54.8l-36.2,19.6c0,0,9.6,3.1,14.1,20.6c1,4.1,2,14.6,2,14.6L1164.6,511z"/>
			<path class="st19" d="M1103.2,455.6c0,0,7,23,31,20.1s58.4-16.2,58.4-16.2s-10.3-29.8-23-69.1c-15.5-47.4-34.8-108.5-43.8-147.1
				c-2.1-8.7-3.7-17.5-4.9-26.3l-20-35.6c0,0-29.8,61.3-31.4,76.8S1103.2,455.6,1103.2,455.6z"/>
			<path class="st16" d="M1127.2,256l-26.4-74.5c0.1,0,33.4,9,50,16.8c0,0,10.5,12.4,17,40.9c0,0,6.8,68.4-8.4,93.4
				c0,0-48.2,8.8-125.3-15.4V301c0,0,84.3,4,101.6,5.9L1127.2,256z"/>
			<path class="st21" d="M1104.2,290.7c1.1,25,7.5,73.6,64.8,99.6l0.4,0.2c-15.5-47.4-34.7-108.6-43.8-147.2
				C1115.2,257.8,1103.6,276.9,1104.2,290.7z"/>
			<path class="st19" d="M1100.8,181.5c0,0,48.9,3.1,60.7,27.2s15.5,104,0.5,127.6c0,0-20.7,5.4-57.2-0.9l-1.4-0.2
				c0,0-11.6-26.1-1.2-31.3c0,0,30.9,1.5,27.6-7.8S1100.8,181.5,1100.8,181.5z"/>
			<path class="st15" d="M978.1,311l1.5,4.2l80.3-22.9c0.6-0.7,0.8-1.7,0.5-2.6s-1.1-1.5-2-1.6L978.1,311z"/>
			<path class="st15" d="M972.4,314.9l5.7-3.9l1.5,4.2L972.4,314.9z"/>
			<path class="st16" d="M959.6,411.4c0,0-20.3,10.3-23.1,18.2s-0.8,24.3,2.4,24.1s8.1-17.7,10.7-18.9s6.5-4.9,6.5-2.2
				s-2.6,7.7-1.4,8.4s5.7-6.9,8.6-8.4s4.2-13.6,7.1-16.8S959.6,411.4,959.6,411.4z"/>
			<path class="st16" d="M1034.1,301c0,0-18.2-10.3-25.9-8.7s-27.2,14.5-17.7,17.3s16.9-0.1,20.5,1.9s6.3,5.8,23.1,5.7
				S1034.1,301,1034.1,301z"/>
		</g>
	</g>
</g>
</svg>
